<svg width="10" height="10" viewBox="0 0 10 10" fill="none" xmlns="http://www.w3.org/2000/svg">
<path d="M2.29244 9.19602C1.95437 9.19602 1.64471 9.11364 1.36346 8.94886C1.08221 8.78125 0.857777 8.55682 0.690163 8.27557C0.525391 7.99432 0.443004 7.68466 0.443004 7.34659C0.443004 7.00568 0.525391 6.6946 0.690163 6.41335C0.857777 6.1321 1.08221 5.90767 1.36346 5.74006C1.64471 5.57244 1.95437 5.48864 2.29244 5.48864H3.28107V3.77557H2.29244C1.95437 3.77557 1.64471 3.69318 1.36346 3.52841C1.08221 3.3608 0.857777 3.13778 0.690163 2.85938C0.525391 2.57812 0.443004 2.26705 0.443004 1.92614C0.443004 1.58523 0.525391 1.27557 0.690163 0.997159C0.857777 0.715909 1.08221 0.492898 1.36346 0.328125C1.64471 0.160511 1.95437 0.076704 2.29244 0.076704C2.63335 0.076704 2.94442 0.160511 3.22567 0.328125C3.50692 0.492898 3.73136 0.715909 3.89897 0.997159C4.06658 1.27557 4.15039 1.58523 4.15039 1.92614V2.90625H5.86346V1.92614C5.86346 1.58523 5.94585 1.27557 6.11062 0.997159C6.27823 0.715909 6.50124 0.492898 6.77965 0.328125C7.0609 0.160511 7.37198 0.076704 7.71289 0.076704C8.0538 0.076704 8.36346 0.160511 8.64187 0.328125C8.92312 0.492898 9.14613 0.715909 9.3109 0.997159C9.47852 1.27557 9.56232 1.58523 9.56232 1.92614C9.56232 2.26705 9.47852 2.57812 9.3109 2.85938C9.14613 3.13778 8.92312 3.3608 8.64187 3.52841C8.36346 3.69318 8.0538 3.77557 7.71289 3.77557H6.73278V5.48864H7.71289C8.0538 5.48864 8.36346 5.57244 8.64187 5.74006C8.92312 5.90767 9.14613 6.1321 9.3109 6.41335C9.47852 6.6946 9.56232 7.00568 9.56232 7.34659C9.56232 7.68466 9.47852 7.99432 9.3109 8.27557C9.14613 8.55682 8.92312 8.78125 8.64187 8.94886C8.36346 9.11364 8.0538 9.19602 7.71289 9.19602C7.37198 9.19602 7.0609 9.11364 6.77965 8.94886C6.50124 8.78125 6.27823 8.55682 6.11062 8.27557C5.94585 7.99432 5.86346 7.68466 5.86346 7.34659V6.35795H4.15039V7.34659C4.15039 7.68466 4.06658 7.99432 3.89897 8.27557C3.73136 8.55682 3.50692 8.78125 3.22567 8.94886C2.94442 9.11364 2.63335 9.19602 2.29244 9.19602ZM2.29244 8.3267C2.47425 8.3267 2.63903 8.28267 2.78675 8.1946C2.93732 8.10653 3.05664 7.98864 3.14471 7.84091C3.23562 7.69034 3.28107 7.52557 3.28107 7.34659V6.35795H2.29244C2.11346 6.35795 1.94869 6.40341 1.79812 6.49432C1.65039 6.58239 1.53249 6.7017 1.44442 6.85227C1.35636 7 1.31232 7.16477 1.31232 7.34659C1.31232 7.52557 1.35636 7.69034 1.44442 7.84091C1.53249 7.98864 1.65039 8.10653 1.79812 8.1946C1.94869 8.28267 2.11346 8.3267 2.29244 8.3267ZM2.29244 2.90625H3.28107V1.92614C3.28107 1.74432 3.23562 1.57955 3.14471 1.43182C3.05664 1.28409 2.93732 1.16619 2.78675 1.07812C2.63903 0.990057 2.47425 0.946022 2.29244 0.946022C2.11346 0.946022 1.94869 0.990057 1.79812 1.07812C1.65039 1.16619 1.53249 1.28409 1.44442 1.43182C1.35636 1.57955 1.31232 1.74432 1.31232 1.92614C1.31232 2.10795 1.35636 2.27415 1.44442 2.42472C1.53249 2.57244 1.65039 2.69034 1.79812 2.77841C1.94869 2.86364 2.11346 2.90625 2.29244 2.90625ZM6.73278 2.90625H7.71289C7.89471 2.90625 8.05948 2.86364 8.20721 2.77841C8.35494 2.69034 8.47283 2.57244 8.5609 2.42472C8.64897 2.27415 8.693 2.10795 8.693 1.92614C8.693 1.74432 8.64897 1.57955 8.5609 1.43182C8.47283 1.28409 8.35494 1.16619 8.20721 1.07812C8.05948 0.990057 7.89471 0.946022 7.71289 0.946022C7.53107 0.946022 7.36488 0.990057 7.21431 1.07812C7.06658 1.16619 6.94869 1.28409 6.86062 1.43182C6.77539 1.57955 6.73278 1.74432 6.73278 1.92614V2.90625ZM7.71289 8.3267C7.89471 8.3267 8.05948 8.28267 8.20721 8.1946C8.35494 8.10653 8.47283 7.98864 8.5609 7.84091C8.64897 7.69034 8.693 7.52557 8.693 7.34659C8.693 7.16477 8.64897 7 8.5609 6.85227C8.47283 6.7017 8.35494 6.58239 8.20721 6.49432C8.05948 6.40341 7.89471 6.35795 7.71289 6.35795H6.73278V7.34659C6.73278 7.52557 6.77539 7.69034 6.86062 7.84091C6.94869 7.98864 7.06658 8.10653 7.21431 8.1946C7.36488 8.28267 7.53107 8.3267 7.71289 8.3267ZM4.15039 5.48864H5.86346V3.77557H4.15039V5.48864Z" fill="#575757"/>
</svg>
